<?xml version="1.0" standalone="no"?>
<!DOCTYPE svg PUBLIC "-//W3C//DTD SVG 20010904//EN"
 "http://www.w3.org/TR/2001/REC-SVG-20010904/DTD/svg10.dtd">
<svg version="1.0" xmlns="http://www.w3.org/2000/svg"
 width="350.000000pt" height="350.000000pt" viewBox="0 0 350.000000 350.000000"
 preserveAspectRatio="xMidYMid meet">

<g transform="translate(0.000000,350.000000) scale(0.100000,-0.100000)"
fill="#000000" stroke="none">
<path d="M922 2683 c-12 -3 -40 -21 -61 -41 -41 -39 -61 -91 -60 -152 1 -32 1
-33 8 -10 22 72 63 119 123 145 53 22 105 19 168 -11 l55 -25 -34 35 c-57 59
-113 75 -199 59z"/>
<path d="M1371 2631 c-9 -6 -7 -10 8 -14 32 -8 28 -60 -6 -87 -61 -48 -235
-109 -513 -181 -107 -27 -207 -55 -222 -60 -76 -30 -91 -108 -27 -144 l36 -20
-42 -28 c-53 -34 -76 -81 -82 -166 l-4 -66 31 57 c36 69 56 81 203 119 136 36
184 57 236 104 l42 38 34 -19 35 -19 30 35 c17 19 30 39 30 43 0 4 7 7 16 5
12 -2 16 7 18 39 2 29 12 56 34 87 18 24 32 49 32 55 0 6 -28 1 -67 -14 -57
-20 -190 -57 -409 -114 -39 -10 -42 -14 -48 -53 -8 -47 -39 -88 -67 -88 -10 0
-30 10 -45 23 -24 21 -25 26 -14 48 7 13 20 30 29 36 21 16 142 53 326 98 240
58 334 93 408 149 21 16 43 38 48 48 22 41 -16 109 -50 89z"/>
<path d="M1025 2440 c-44 -16 -73 -29 -64 -29 18 -1 119 32 146 48 30 17 2 11
-82 -19z"/>
<path d="M913 2068 c-38 -12 -39 -17 -17 -61 27 -53 65 -86 123 -108 119 -44
153 -127 81 -199 -18 -18 -18 -21 -5 -26 18 -7 55 -75 55 -100 0 -31 10 -9 20
45 5 30 21 66 34 82 14 16 28 38 31 49 11 35 -39 105 -107 152 -78 53 -145
119 -154 152 -7 28 -12 29 -61 14z"/>
<path d="M710 1823 c-1 -27 42 -103 99 -177 88 -113 87 -132 -12 -230 -96 -95
-159 -218 -156 -306 1 -15 5 -6 10 20 17 86 63 160 154 250 48 46 91 93 97
103 23 44 -5 107 -94 206 -27 29 -60 74 -73 100 -13 25 -24 41 -25 34z"/>
<path d="M1105 1476 c-81 -26 -177 -83 -195 -116 -16 -30 27 -74 63 -65 17 5
27 14 27 26 0 16 -4 17 -26 8 -39 -14 -43 -1 -9 28 36 30 182 103 206 103 13
0 -1 -25 -52 -92 -57 -76 -75 -94 -101 -98 -39 -6 -50 -30 -14 -30 l26 0 -35
-63 c-19 -35 -35 -66 -35 -69 0 -3 11 -3 25 0 18 3 34 22 61 72 33 61 41 69
73 74 21 3 41 14 49 27 13 20 12 21 -17 14 -17 -4 -31 -4 -31 0 0 3 20 36 45
73 47 70 53 90 33 110 -15 15 -41 14 -93 -2z"/>
<path d="M2199 1470 c-45 -24 -106 -91 -115 -126 -11 -43 6 -59 70 -62 31 -2
56 -5 56 -8 0 -34 -78 -83 -133 -84 -25 0 -26 -2 -15 -20 23 -36 90 -21 146
33 34 33 40 62 19 92 -11 14 -23 17 -60 13 -51 -6 -54 -1 -33 40 24 46 78 86
144 106 31 10 29 -11 -8 -61 -26 -36 -28 -42 -15 -53 9 -7 17 -11 19 -9 20 21
56 85 56 99 0 26 -38 60 -68 60 -15 -1 -43 -9 -63 -20z"/>
<path d="M1597 1452 c-30 -33 -69 -102 -92 -164 -9 -25 -28 -57 -41 -69 l-24
-22 0 44 c0 42 -13 69 -32 69 -4 0 -8 -7 -8 -16 0 -16 -77 -94 -94 -94 -4 0
-5 11 -2 25 11 44 -4 49 -40 14 -19 -18 -36 -30 -40 -27 -9 9 14 46 36 58 23
13 26 30 5 30 -22 0 -95 -75 -95 -98 0 -32 19 -37 51 -13 35 26 39 26 39 1 0
-31 29 -24 81 20 26 22 50 40 53 40 3 0 6 -11 6 -25 0 -19 -5 -25 -21 -25 -18
0 -19 -2 -9 -15 17 -20 39 -19 77 4 31 19 31 19 36 0 8 -30 25 -23 46 19 23
44 60 82 47 47 -28 -74 -7 -104 46 -65 23 17 28 18 28 5 0 -24 26 -28 55 -9
25 17 28 17 37 1 11 -21 37 -22 63 -3 34 23 65 29 65 13 0 -12 19 -27 35 -27
1 0 8 13 15 29 6 16 21 38 32 48 20 18 21 18 13 -7 -23 -70 1 -88 55 -39 30
27 31 29 7 14 -35 -20 -41 -16 -27 20 18 48 -10 76 -40 40 -14 -16 -35 -21
-25 -6 3 6 -3 15 -13 20 -17 9 -21 5 -35 -29 -9 -23 -22 -40 -31 -40 -9 0 -13
6 -10 14 3 8 1 23 -5 33 -9 16 -12 13 -27 -24 -9 -23 -23 -44 -30 -47 -22 -8
-16 18 11 59 15 20 24 39 21 42 -12 12 -48 -12 -73 -49 -33 -49 -59 -64 -47
-27 11 36 10 61 -3 66 -7 3 -15 -7 -19 -21 -6 -25 -60 -74 -70 -64 -2 3 1 19
7 37 18 52 -10 83 -41 46 -7 -8 -16 -15 -21 -15 -5 0 11 25 36 55 24 31 51 69
60 85 28 54 -7 85 -48 42z m36 -19 c-7 -20 -54 -93 -59 -93 -6 0 15 51 33 82
19 31 36 38 26 11z"/>
<path d="M2378 1403 c-9 -2 -22 -18 -29 -34 -7 -17 -22 -35 -33 -39 -16 -7
-17 -9 -4 -9 15 -1 14 -7 -5 -62 -19 -55 -19 -61 -4 -76 14 -15 18 -15 42 1
25 17 28 17 46 0 18 -17 21 -16 63 4 24 12 47 22 52 22 5 0 20 9 34 20 34 27
40 25 27 -10 -16 -43 3 -60 42 -37 25 15 30 15 41 2 24 -28 97 -11 131 31 11
15 7 14 -22 -4 -38 -23 -69 -29 -69 -13 0 5 16 18 35 30 37 22 47 57 20 67
-24 10 -75 -16 -90 -46 -15 -29 -43 -56 -51 -48 -2 3 0 18 6 33 10 26 8 31
-21 57 -29 27 -32 28 -44 11 -10 -13 -10 -21 -2 -31 8 -11 5 -18 -13 -33 -32
-24 -43 -24 -36 -1 4 12 -3 27 -18 41 -30 29 -55 18 -91 -39 -32 -51 -58 -55
-44 -7 19 68 31 87 55 87 12 0 26 5 29 10 4 6 -5 10 -20 10 -25 0 -25 1 -10
30 22 42 21 43 -17 33z m92 -127 c0 -12 -31 -76 -40 -81 -15 -9 -12 22 5 55
13 25 35 41 35 26z m260 -11 c0 -8 -10 -19 -21 -26 -22 -11 -21 -3 4 29 12 16
17 15 17 -3z"/>
<path d="M1713 1354 c-9 -23 11 -38 26 -20 13 16 7 36 -10 36 -5 0 -12 -7 -16
-16z"/>
</g>
</svg>
