<?xml version="1.0" standalone="no"?>
<!DOCTYPE svg PUBLIC "-//W3C//DTD SVG 20010904//EN"
 "http://www.w3.org/TR/2001/REC-SVG-20010904/DTD/svg10.dtd">
<svg version="1.0" xmlns="http://www.w3.org/2000/svg"
 width="150px" height="100px" viewBox="0 0 150.000000 100.000000"
 preserveAspectRatio="xMidYMid meet">

<g transform="translate(0.000000,100.000000) scale(0.100000,-0.100000)"
fill="white" stroke="none">
<path d="M281 966 c-27 -15 -50 -52 -51 -81 0 -16 4 -14 23 12 34 50 97 66
150 39 38 -20 34 -6 -6 22 -37 25 -80 28 -116 8z"/>
<path d="M585 928 c3 -13 2 -28 -2 -34 -20 -29 -138 -74 -308 -118 -72 -19
-142 -40 -157 -46 -29 -14 -40 -39 -26 -64 14 -24 26 -19 20 9 -4 22 1 28 39
44 24 10 60 21 79 24 l35 6 -37 -11 c-25 -8 -38 -18 -38 -28 0 -19 -39 -74
-47 -66 -3 3 -12 -1 -20 -9 -8 -8 -21 -18 -29 -23 -20 -11 -43 -77 -43 -122
l0 -35 13 38 c23 63 30 67 171 106 23 6 62 24 87 41 37 25 51 29 66 21 16 -8
24 -5 46 19 14 17 26 36 26 44 0 29 51 104 79 116 16 6 39 22 50 34 18 19 20
28 12 49 -13 33 -23 36 -16 5z m-125 -128 c-8 -5 -22 -9 -30 -9 -10 0 -8 3 5
9 27 12 43 12 25 0z m-65 -20 c-11 -5 -29 -8 -40 -8 -16 0 -15 2 5 8 34 11 60
11 35 0z m-80 -20 c-11 -5 -27 -9 -35 -9 -9 0 -8 4 5 9 11 5 27 9 35 9 9 0 8
-4 -5 -9z"/>
<path d="M295 596 c-20 -14 -20 -14 1 -43 11 -15 38 -37 61 -48 22 -11 48 -26
57 -34 18 -15 21 -53 6 -81 -7 -13 -6 -26 4 -45 l15 -28 14 35 c8 20 20 39 26
42 24 15 9 47 -41 88 -65 54 -100 89 -113 111 -9 16 -12 17 -30 3z"/>
<path d="M196 400 c4 -8 23 -34 41 -58 42 -55 43 -91 4 -120 -28 -20 -91 -102
-91 -118 0 -4 15 12 33 34 17 22 45 51 60 63 59 45 54 95 -19 174 -20 22 -33
33 -28 25z"/>
<path d="M384 229 c-65 -25 -102 -62 -84 -84 14 -17 50 -21 50 -5 0 6 -10 10
-22 10 -22 1 -22 2 7 25 31 25 112 61 120 53 9 -8 -86 -118 -103 -118 -13 0
-14 -2 -4 -9 11 -7 10 -16 -7 -49 -19 -38 -19 -40 -2 -35 10 3 26 21 36 42 11
24 27 41 48 50 26 10 29 14 15 19 -16 6 -15 12 12 52 22 33 26 47 18 57 -14
17 -23 16 -84 -8z"/>
<path d="M1062 229 c-37 -24 -65 -70 -56 -93 4 -10 19 -16 40 -16 53 0 37 -33
-23 -49 -34 -9 -32 -27 4 -24 34 3 75 42 71 68 -2 15 -12 21 -35 23 -38 4 -40
10 -13 44 20 26 76 55 86 45 4 -3 -3 -19 -15 -36 -12 -16 -17 -32 -12 -35 12
-8 41 32 41 54 0 20 -20 40 -39 40 -9 0 -31 -10 -49 -21z"/>
<path d="M697 208 c-14 -18 -31 -50 -38 -71 -7 -21 -21 -45 -31 -54 -17 -15
-18 -14 -18 15 0 33 -15 51 -23 28 -3 -8 -3 -24 0 -35 3 -14 1 -21 -8 -21 -11
0 -11 -2 1 -10 10 -6 22 -4 37 6 13 8 23 10 23 4 0 -19 16 -10 33 20 10 16 16
30 13 30 -4 0 7 19 24 42 29 40 39 78 21 78 -6 0 -21 -15 -34 -32z m23 -18
c-6 -12 -14 -19 -17 -17 -2 3 1 15 7 27 6 12 14 19 17 17 2 -3 -1 -15 -7 -27z"/>
<path d="M1182 192 c-15 -10 -55 -110 -48 -121 6 -10 89 -12 103 -3 19 12 19
44 0 56 -15 9 -23 5 -47 -24 -31 -37 -40 -25 -16 21 12 24 29 79 24 79 -2 0
-9 -4 -16 -8z m47 -104 c-8 -14 -14 -18 -17 -10 -4 13 17 46 25 38 3 -2 -1
-15 -8 -28z"/>
<path d="M780 160 c0 -5 5 -10 10 -10 6 0 10 5 10 10 0 6 -4 10 -10 10 -5 0
-10 -4 -10 -10z"/>
<path d="M1289 138 c-5 -18 -4 -46 3 -42 4 3 8 -5 8 -16 0 -18 4 -21 24 -16
14 3 28 2 31 -4 10 -15 28 -12 22 4 -4 9 5 21 19 31 14 9 22 20 19 25 -12 19
-40 10 -68 -22 -26 -31 -27 -32 -22 -8 4 18 0 28 -15 38 -11 7 -20 11 -21 10z
m111 -28 c0 -5 -5 -10 -11 -10 -5 0 -7 5 -4 10 3 6 8 10 11 10 2 0 4 -4 4 -10z"/>
<path d="M472 107 c-26 -28 -29 -50 -4 -45 9 2 16 11 14 20 -1 9 8 24 20 32
16 11 18 16 7 16 -9 0 -25 -10 -37 -23z"/>
<path d="M693 95 c-3 -35 17 -49 33 -23 4 7 3 8 -4 4 -8 -5 -10 2 -6 24 5 22
3 30 -7 30 -9 0 -15 -13 -16 -35z"/>
<path d="M751 104 c-17 -39 -14 -43 32 -42 64 1 77 6 77 34 0 40 -29 42 -62 3
-29 -34 -29 -34 -24 -7 8 35 -8 44 -23 12z m92 -4 c-6 -24 -23 -37 -23 -18 0
12 18 38 26 38 1 0 0 -9 -3 -20z"/>
<path d="M884 106 c-7 -14 -8 -30 -3 -38 7 -10 13 -8 28 12 14 18 17 28 9 37
-15 18 -21 16 -34 -11z"/>
<path d="M939 128 c0 -2 -3 -18 -5 -35 -6 -37 14 -45 37 -15 13 15 12 16 -3 3
-17 -12 -17 -11 -12 18 4 20 3 31 -5 31 -6 0 -11 -1 -12 -2z"/>
<path d="M511 97 c-19 -24 -7 -51 17 -38 10 5 25 18 33 28 13 17 12 17 -8 0
-21 -18 -21 -18 -25 4 -3 20 -4 21 -17 6z"/>
<path d="M1406 75 c-11 -8 -15 -15 -9 -15 6 0 16 7 23 15 16 19 11 19 -14 0z"/>
</g>
</svg>
